<?xml version="1.0" encoding="UTF-8" standalone="no"?>
<!-- Created with Inkscape (http://www.inkscape.org/) -->

<svg
   width="512"
   height="512"
   viewBox="0 0 512 512"
   version="1.1"
   id="svg1"
   xmlns:xlink="http://www.w3.org/1999/xlink"
   xmlns="http://www.w3.org/2000/svg"
   xmlns:svg="http://www.w3.org/2000/svg">
  <defs
     id="defs1">
    <linearGradient
       id="linearGradient7">
      <stop
         style="stop-color:#d7a9f5;stop-opacity:1;"
         offset="0"
         id="stop6" />
      <stop
         style="stop-color:#5deaff;stop-opacity:1;"
         offset="1"
         id="stop7" />
    </linearGradient>
    <linearGradient
       id="linearGradient4">
      <stop
         style="stop-color:#ffffff;stop-opacity:0.64999998;"
         offset="0"
         id="stop4" />
      <stop
         style="stop-color:#ffffff;stop-opacity:0;"
         offset="0.60000002"
         id="stop5" />
    </linearGradient>
    <linearGradient
       xlink:href="#linearGradient7"
       id="linearGradient5"
       x1="45.827137"
       y1="26.185194"
       x2="214.3195"
       y2="194.67755"
       gradientUnits="userSpaceOnUse" />
    <linearGradient
       xlink:href="#linearGradient4"
       id="linearGradient6"
       gradientUnits="userSpaceOnUse"
       x1="45.827137"
       y1="26.185194"
       x2="214.3195"
       y2="194.67755" />
    <linearGradient
       xlink:href="#linearGradient7"
       id="linearGradient8"
       gradientUnits="userSpaceOnUse"
       x1="45.827137"
       y1="26.185194"
       x2="214.3195"
       y2="194.67755" />
    <filter
       style="color-interpolation-filters:sRGB"
       id="filter9"
       x="-0.071362286"
       y="-0.071362286"
       width="1.1427246"
       height="1.1427246">
      <feGaussianBlur
         stdDeviation="5"
         result="fbSourceGraphic"
         id="feGaussianBlur8" />
      <feGaussianBlur
         stdDeviation="0.01"
         in="SourceGraphic"
         result="result1"
         id="feGaussianBlur9" />
      <feComposite
         in2="result1"
         operator="arithmetic"
         in="fbSourceGraphic"
         k2="0.5"
         k3="0.5"
         result="result2"
         id="feComposite9"
         k1="0"
         k4="0" />
      <feBlend
         in2="fbSourceGraphic"
         mode="normal"
         result="result3"
         id="feBlend9" />
    </filter>
  </defs>
  <g
     id="layer1"
     style="fill:#000000;fill-opacity:1"
     transform="matrix(0.8855764,0,0,0.8855764,23.601165,17.823894)">
    <rect
       style="fill:#ffffff;fill-opacity:1;stroke:none;stroke-width:0.588183"
       id="rect9"
       width="180"
       height="60"
       x="241.14481"
       y="58.317242"
       rx="10"
       ry="10"
       transform="rotate(45)" />
    <rect
       style="fill:#ffffff;fill-opacity:1;stroke:none;stroke-width:1.60846"
       id="rect10"
       width="287.94806"
       height="60"
       x="-79.829613"
       y="373.99854"
       ry="10"
       rx="10"
       transform="rotate(-39.869856)" />
  </g>
  <g
     id="layer2"
     style="mix-blend-mode:soft-light"
     transform="matrix(0.93339105,0,0,0.93339105,1.1066334e-6,-2.3377156e-7)">
    <path
       style="opacity:0.74;mix-blend-mode:normal;fill:url(#linearGradient8);fill-opacity:1;filter:url(#filter9)"
       id="path4-2"
       d="m 53.905911,186.59878 c -10.771698,-10.7717 -10.771697,-141.563116 10e-7,-152.334814 10.771698,-10.771698 141.563118,-10.771697 152.334818,10e-7 10.77169,10.771698 10.77169,141.563113 -1e-5,152.334813 -10.77169,10.7717 -141.563111,10.7717 -152.334809,0 z"
       transform="matrix(2.848948,0,0,2.848948,-96.303383,-40.344502)" />
    <path
       style="fill:url(#linearGradient5);fill-opacity:1"
       id="path4"
       d="m 53.905911,186.59878 c -10.771698,-10.7717 -10.771697,-141.563116 10e-7,-152.334814 10.771698,-10.771698 141.563118,-10.771697 152.334818,10e-7 10.77169,10.771698 10.77169,141.563113 -1e-5,152.334813 -10.77169,10.7717 -141.563111,10.7717 -152.334809,0 z"
       transform="matrix(2.848948,0,0,2.848948,-96.303383,-40.344502)" />
    <path
       style="display:inline;fill:url(#linearGradient6);fill-opacity:1"
       id="path4-0"
       d="m 53.905911,186.59878 c -10.771698,-10.7717 -10.771697,-141.563116 10e-7,-152.334814 10.771698,-10.771698 141.563118,-10.771697 152.334818,10e-7 10.77169,10.771698 10.77169,141.563113 -1e-5,152.334813 -10.77169,10.7717 -141.563111,10.7717 -152.334809,0 z"
       transform="matrix(2.848948,0,0,2.848948,-96.303383,-40.344502)" />
  </g>
</svg>
